<?xml version="1.0" encoding="UTF-8"?>
<svg xmlns="http://www.w3.org/2000/svg" xmlns:xlink="http://www.w3.org/1999/xlink" width="895px" height="895px" viewBox="0 0 895 895" version="1.1">
<g id="surface1">
<path style=" stroke:none;fill-rule:nonzero;fill:rgb(0%,0%,0%);fill-opacity:1;" d="M 441.101562 894.710938 C 412.53125 892.449219 387.339844 877.460938 370.480469 852.699219 C 367.421875 848.207031 365.566406 844.980469 361.460938 837.019531 C 359.847656 833.894531 324.882812 766 283.757812 686.148438 C 242.636719 606.296875 207.570312 538.210938 205.835938 534.847656 C 204.105469 531.484375 193.46875 510.828125 182.199219 488.949219 C 170.929688 467.066406 160.273438 446.378906 158.523438 442.972656 C 45.21875 223.003906 11.875 158.183594 10.625 155.480469 C -0.707031 130.921875 -3.042969 103.539062 3.949219 77.183594 C 8.566406 59.777344 17.050781 43.984375 28.71875 31.082031 C 36.238281 22.765625 43.921875 16.59375 53.246094 11.375 C 65.101562 4.738281 77.84375 1.007812 91.554688 0.15625 C 94.894531 -0.0507812 800.332031 -0.0546875 803.605469 0.15625 C 825.53125 1.542969 845.320312 10.394531 861.703125 26.144531 C 863.90625 28.261719 869.359375 34.339844 871.238281 36.773438 C 882.5 51.332031 889.925781 68.121094 893.265625 86.558594 C 894.414062 92.90625 894.941406 98.382812 895.058594 105.265625 C 895.222656 114.675781 894.367188 123.257812 892.363281 132.261719 C 890.121094 142.359375 886.828125 151.265625 881.550781 161.523438 C 880.09375 164.359375 776.117188 366.25 768.949219 380.167969 C 767.339844 383.292969 724.371094 466.722656 673.464844 565.570312 C 622.558594 664.414062 579.589844 747.847656 577.980469 750.972656 C 576.371094 754.097656 565.601562 775.011719 554.046875 797.449219 C 530.964844 842.28125 531.332031 841.566406 530.035156 843.925781 C 524.328125 854.292969 516.660156 863.984375 508.226562 871.496094 C 494.648438 883.582031 478.304688 891.316406 460.824219 893.921875 C 456.109375 894.625 454.335938 894.75 448.382812 894.796875 C 445.273438 894.820312 441.992188 894.78125 441.101562 894.710938 Z M 459.050781 640.75 C 479.234375 639.773438 497.433594 636.863281 516.355469 631.589844 C 546.453125 623.203125 574.882812 609.324219 600.910156 590.3125 C 623.898438 573.519531 644.671875 552.902344 662.511719 529.164062 C 700.230469 478.980469 722.34375 417.222656 725.988281 351.890625 C 726.648438 340.019531 726.671875 325.859375 726.050781 314.191406 C 724.132812 278.246094 716.804688 243.648438 704.203125 211.023438 C 685.144531 161.695312 653.984375 117.925781 614.699219 85.3125 C 579.679688 56.238281 539.699219 37.035156 496.582031 28.585938 C 484.953125 26.304688 473.921875 24.960938 460.15625 24.152344 C 455.984375 23.90625 439.136719 23.90625 434.921875 24.152344 C 414.84375 25.324219 398.109375 27.992188 380.152344 32.886719 C 341.351562 43.460938 305.1875 63.238281 273.632812 91.136719 C 265.089844 98.691406 258.859375 104.878906 250.511719 114.105469 C 243.085938 122.3125 238.5625 127.769531 232.613281 135.695312 C 199.9375 179.25 178.933594 231.332031 171.570312 287.070312 C 169.527344 302.53125 168.644531 316.277344 168.648438 332.539062 C 168.652344 343.308594 168.90625 350.050781 169.683594 359.878906 C 174.746094 424.046875 197.628906 484.167969 235.617188 533.113281 C 244.179688 544.140625 254.082031 555.203125 263.984375 564.800781 C 292.910156 592.828125 326.496094 613.835938 362.65625 626.523438 C 387.5625 635.265625 413.125 640.027344 439.785156 640.898438 C 444.078125 641.039062 454.785156 640.957031 459.050781 640.75 Z M 439.027344 631.246094 C 392.769531 629.605469 348.265625 615.109375 308.617188 588.765625 C 281.167969 570.527344 256.519531 546.640625 236.359375 518.746094 C 201.605469 470.648438 181.222656 412.261719 177.808594 351.027344 C 177.035156 337.199219 177.148438 322.46875 178.132812 308.722656 C 182.464844 248.136719 203.398438 190.652344 238.34375 143.394531 C 244.359375 135.261719 249.414062 129.117188 256.882812 120.871094 C 261.960938 115.261719 264.898438 112.203125 269.515625 107.722656 C 294.238281 83.707031 322.539062 64.976562 353.367188 52.230469 C 377.203125 42.378906 402.652344 36.257812 428.089844 34.261719 C 435.609375 33.671875 437.605469 33.605469 447.539062 33.605469 C 457.15625 33.605469 459.359375 33.675781 466.078125 34.1875 C 510.285156 37.550781 552.449219 52.628906 590.109375 78.546875 C 628.003906 104.625 659.898438 141.203125 682.15625 184.113281 C 687.136719 193.722656 692.195312 204.933594 696.140625 215.125 C 708.027344 245.828125 715.234375 278.972656 717.203125 312.035156 C 717.617188 318.960938 717.683594 321.054688 717.753906 329.445312 C 717.847656 340.125 717.675781 346.164062 717.003906 355.777344 C 713.644531 404.097656 699.542969 450.953125 676 492.042969 C 656.871094 525.425781 631.636719 554.65625 602.34375 577.375 C 579.535156 595.0625 553.949219 608.964844 527.542969 618.015625 C 499.015625 627.789062 468.828125 632.300781 439.027344 631.246094 Z M 455.605469 605.351562 C 461.949219 605.09375 468.183594 604.578125 474.011719 603.835938 C 520.160156 597.953125 563.210938 576.910156 598.582031 542.949219 C 603.730469 538.003906 611.039062 530.207031 615.738281 524.632812 C 638.820312 497.273438 656.136719 464.925781 666.527344 429.769531 C 681.808594 378.042969 681.621094 321.550781 665.996094 270.019531 C 651.132812 220.984375 622.867188 177.816406 585.300781 146.773438 C 573.777344 137.25 562.925781 129.847656 550.113281 122.769531 C 520.929688 106.644531 490.472656 97.957031 457.164062 96.261719 C 450.449219 95.921875 439.25 96.085938 431.929688 96.632812 C 376.382812 100.792969 324.332031 127.011719 284.800781 170.734375 C 235.632812 225.121094 211.460938 300.210938 218.46875 376.785156 C 222.90625 425.292969 239.972656 471.371094 267.679688 509.667969 C 273.375 517.539062 278.183594 523.457031 284.984375 530.96875 C 296.257812 543.421875 307.515625 553.601562 320.703125 563.269531 C 356.484375 589.492188 397.492188 603.902344 440.578125 605.402344 C 443.652344 605.507812 452.507812 605.480469 455.605469 605.351562 Z M 440.125 595.769531 C 439.625 595.746094 437.894531 595.652344 436.285156 595.566406 C 413.980469 594.382812 391.117188 589.148438 370.054688 580.410156 C 356.707031 574.871094 343.179688 567.515625 331.046875 559.195312 C 319.757812 551.457031 308.921875 542.40625 298.652344 532.144531 C 295.847656 529.335938 287.253906 519.910156 284.707031 516.84375 C 259.40625 486.371094 241.613281 450.050781 232.652344 410.597656 C 225.585938 379.476562 224.105469 347.28125 228.277344 315.402344 C 231.03125 294.34375 236.386719 273.417969 244.011719 253.917969 C 248.382812 242.742188 253.960938 231.019531 259.792969 220.746094 C 271.191406 200.671875 285.609375 181.980469 301.710938 166.410156 C 319.363281 149.339844 339.015625 135.617188 360.316406 125.480469 C 396.480469 108.273438 436.246094 102.121094 475.660156 107.636719 C 515.726562 113.242188 553.925781 131.15625 585.625 159.203125 C 592.5 165.28125 597.628906 170.382812 604.296875 177.773438 C 608.765625 182.722656 610.984375 185.332031 614.515625 189.800781 C 631 210.640625 644.265625 234.65625 653.554688 260.449219 C 665.53125 293.71875 670.722656 329.722656 668.746094 365.777344 C 666.179688 412.605469 651.492188 457.5 626.304688 495.496094 C 610.816406 518.855469 591.28125 539.4375 569.496094 555.347656 C 539.351562 577.367188 505.222656 590.789062 469.457031 594.699219 C 466.644531 595.003906 462.964844 595.320312 459.183594 595.578125 C 457.035156 595.726562 442.089844 595.875 440.125 595.769531 Z M 457.425781 583.625 C 491.632812 581.769531 523.871094 571.308594 553.101562 552.578125 C 575.625 538.148438 595.785156 518.964844 612.101562 496.429688 C 647.417969 447.65625 663.429688 385.71875 656.839844 323.328125 C 652.132812 278.726562 635.773438 236.570312 609.71875 201.902344 C 600.8125 190.050781 590.386719 178.699219 579.578125 169.089844 C 566.148438 157.152344 551.378906 147.011719 535.867188 139.074219 C 513.25 127.5 488.816406 120.488281 463.734375 118.367188 C 457.882812 117.871094 455.449219 117.785156 447.605469 117.785156 C 439.773438 117.78125 437.386719 117.867188 431.472656 118.363281 C 381.816406 122.5 335.359375 145.886719 299.714844 184.691406 C 268.015625 219.195312 246.988281 263.84375 239.730469 312.046875 C 237.597656 326.21875 236.75 338.707031 236.902344 353.617188 C 236.976562 360.789062 237.050781 362.78125 237.457031 368.796875 C 241.574219 429.984375 267.921875 487.4375 310.296875 527.644531 C 332.542969 548.753906 358.191406 564.378906 386.007812 573.769531 C 403.644531 579.726562 422 583.070312 440.90625 583.769531 C 444.753906 583.910156 453.558594 583.832031 457.425781 583.625 Z M 446.074219 578.675781 C 444.746094 578.199219 443.738281 577.171875 443.082031 575.617188 L 442.726562 574.777344 L 442.726562 520.386719 L 443.015625 519.597656 C 443.457031 518.386719 444.320312 517.398438 445.476562 516.765625 C 446.375 516.273438 446.550781 516.230469 447.519531 516.238281 C 448.9375 516.246094 449.839844 516.636719 450.839844 517.660156 C 451.359375 518.191406 451.71875 518.722656 451.976562 519.339844 L 452.351562 520.242188 L 452.351562 574.929688 L 451.929688 575.878906 C 451.425781 577.003906 450.609375 577.890625 449.578125 578.421875 C 448.691406 578.878906 446.988281 579.003906 446.074219 578.675781 Z M 384.503906 566.304688 C 382.441406 565.425781 381.199219 563.703125 381.046875 561.511719 C 380.984375 560.578125 381.140625 559.859375 384.503906 545.929688 C 386.441406 537.894531 388.175781 530.988281 388.359375 530.578125 C 388.785156 529.605469 389.898438 528.484375 390.855469 528.066406 C 391.421875 527.816406 391.867188 527.738281 392.707031 527.734375 C 393.679688 527.730469 393.917969 527.785156 394.6875 528.1875 C 396.402344 529.078125 397.394531 530.703125 397.488281 532.761719 C 397.539062 533.890625 397.46875 534.199219 394.019531 548.496094 C 391.625 558.414062 390.386719 563.308594 390.148438 563.789062 C 389.695312 564.710938 388.84375 565.570312 387.917969 566.042969 C 387.027344 566.496094 385.269531 566.628906 384.503906 566.304688 Z M 507.898438 566.304688 C 506.671875 565.871094 505.417969 564.769531 504.925781 563.679688 C 504.328125 562.363281 495.046875 535.394531 494.964844 534.734375 C 494.683594 532.5 495.746094 530.28125 497.621094 529.1875 C 498.355469 528.761719 498.488281 528.734375 499.769531 528.734375 C 500.996094 528.734375 501.210938 528.773438 501.859375 529.128906 C 502.789062 529.632812 503.761719 530.691406 504.140625 531.609375 C 504.304688 532.007812 506.585938 538.480469 509.207031 546 C 513.488281 558.269531 513.984375 559.773438 514.042969 560.699219 C 514.082031 561.289062 514.042969 562.039062 513.953125 562.460938 C 513.734375 563.457031 512.925781 564.796875 512.167969 565.417969 C 511.003906 566.367188 509.167969 566.746094 507.898438 566.304688 Z M 328.226562 536.28125 C 326.761719 535.960938 325.359375 534.71875 324.695312 533.152344 C 324.394531 532.441406 324.347656 532.144531 324.347656 530.957031 C 324.347656 529.71875 324.382812 529.503906 324.738281 528.726562 C 325.121094 527.886719 352.410156 486.230469 353.269531 485.171875 C 353.8125 484.507812 355.074219 483.800781 356.023438 483.636719 C 358.113281 483.265625 360.277344 484.574219 361.207031 486.765625 C 361.503906 487.46875 361.550781 487.769531 361.550781 488.953125 C 361.550781 490.191406 361.511719 490.410156 361.160156 491.1875 C 360.746094 492.101562 333.410156 533.832031 332.636719 534.730469 C 332.03125 535.433594 330.902344 536.082031 329.949219 536.273438 C 329.089844 536.449219 328.996094 536.449219 328.226562 536.28125 Z M 565.097656 536.28125 C 564.179688 536.074219 563.171875 535.488281 562.574219 534.816406 C 562.128906 534.3125 535.9375 494.585938 534.425781 492.121094 C 533.769531 491.050781 533.527344 490.167969 533.53125 488.875 C 533.53125 487.886719 533.589844 487.585938 533.941406 486.757812 C 535.410156 483.304688 539.46875 482.480469 541.800781 485.164062 C 542.554688 486.03125 569.976562 527.78125 570.371094 528.660156 C 570.984375 530.03125 570.96875 531.910156 570.332031 533.363281 C 569.902344 534.347656 568.671875 535.601562 567.773438 535.972656 C 566.917969 536.324219 565.835938 536.453125 565.097656 536.28125 Z M 284.800781 486.164062 C 283.378906 485.640625 282.253906 484.546875 281.640625 483.078125 C 281.351562 482.390625 281.296875 482.054688 281.296875 481.035156 C 281.300781 479.4375 281.644531 478.433594 282.566406 477.359375 C 283.664062 476.085938 303.695312 458.175781 304.507812 457.742188 C 305.132812 457.410156 305.386719 457.363281 306.523438 457.363281 C 307.6875 457.363281 307.90625 457.40625 308.570312 457.769531 C 309.5625 458.308594 310.445312 459.308594 310.9375 460.457031 C 311.292969 461.289062 311.335938 461.535156 311.332031 462.6875 C 311.328125 464.328125 310.9375 465.382812 309.929688 466.464844 C 309.558594 466.863281 304.660156 471.316406 299.042969 476.359375 C 292.3125 482.40625 288.589844 485.65625 288.117188 485.898438 C 287.261719 486.339844 285.636719 486.472656 284.800781 486.164062 Z M 607.765625 486.140625 C 607.386719 486.023438 606.949219 485.851562 606.792969 485.757812 C 605.777344 485.160156 583.90625 469.386719 583.503906 468.964844 C 582.878906 468.300781 582.253906 466.914062 582.136719 465.910156 C 581.855469 463.539062 582.921875 461.308594 584.832031 460.273438 C 585.617188 459.851562 585.796875 459.808594 586.925781 459.808594 C 587.921875 459.808594 588.28125 459.871094 588.777344 460.121094 C 589.113281 460.292969 594.46875 464.070312 600.679688 468.511719 C 608.621094 474.191406 612.140625 476.789062 612.542969 477.261719 C 613.460938 478.347656 613.773438 479.261719 613.78125 480.890625 C 613.789062 482.15625 613.757812 482.335938 613.363281 483.21875 C 612.328125 485.546875 609.910156 486.808594 607.765625 486.140625 Z M 442.09375 457.863281 C 422.753906 456.535156 404.855469 449.320312 389.648438 436.71875 C 361.03125 413.007812 346.566406 374.511719 351.609375 335.488281 C 355.242188 307.375 368.828125 282.136719 389.636719 264.847656 C 397.988281 257.910156 407.316406 252.546875 417.429688 248.871094 C 425.144531 246.066406 433.164062 244.355469 441.402344 243.757812 C 446.03125 243.421875 452.875 243.578125 457.6875 244.128906 C 471.65625 245.734375 485.210938 250.75 497.425781 258.84375 C 519.246094 273.289062 535.222656 297.046875 541.53125 324.410156 C 548.359375 354.046875 543.335938 385.65625 527.773438 410.953125 C 524.089844 416.933594 520.429688 421.761719 515.488281 427.15625 C 509.695312 433.476562 504.167969 438.226562 497.277344 442.804688 C 484.40625 451.355469 470.460938 456.265625 454.890625 457.730469 C 452.738281 457.933594 444.371094 458.019531 442.09375 457.863281 Z M 451.570312 448.367188 C 467.832031 447.472656 482.632812 442.144531 496.128906 432.324219 C 509.324219 422.722656 520.125 409.085938 527.070312 393.261719 C 536.519531 371.726562 538.449219 346.976562 532.480469 323.882812 C 526.050781 299.015625 510.621094 277.691406 489.949219 265.09375 C 479.386719 258.660156 467.820312 254.757812 455.472656 253.464844 C 452.480469 253.152344 445.695312 253.03125 442.597656 253.238281 C 432.917969 253.882812 423.816406 256.101562 415.078125 259.945312 C 392.082031 270.054688 373.800781 290.546875 364.988281 316.097656 C 362.183594 324.230469 360.433594 332.589844 359.59375 341.890625 C 359.3125 344.972656 359.199219 353.226562 359.394531 356.566406 C 360.351562 373.265625 364.796875 388.585938 372.773438 402.683594 C 379.878906 415.246094 390.003906 426.308594 401.554688 434.132812 C 416.589844 444.316406 434.183594 449.324219 451.570312 448.367188 Z M 254.433594 424.679688 C 252.164062 423.800781 250.714844 421.105469 251.179688 418.617188 C 251.472656 417.054688 252.226562 415.804688 253.355469 415.015625 C 253.789062 414.710938 260.683594 412.171875 276.863281 406.355469 L 299.761719 398.125 L 300.867188 398.183594 C 302.292969 398.261719 303.203125 398.730469 304.183594 399.902344 C 305.109375 401.007812 305.464844 402.019531 305.464844 403.554688 C 305.46875 404.546875 305.414062 404.84375 305.074219 405.648438 C 304.597656 406.773438 304.058594 407.476562 303.234375 408.054688 C 302.800781 408.359375 295.945312 410.882812 279.753906 416.699219 C 257.972656 424.523438 256.839844 424.914062 255.949219 424.910156 C 255.433594 424.90625 254.75 424.800781 254.433594 424.679688 Z M 615.417969 416.726562 C 602.929688 412.230469 592.460938 408.410156 592.148438 408.234375 C 591.375 407.800781 590.53125 406.800781 590.089844 405.808594 C 589.761719 405.074219 589.722656 404.835938 589.722656 403.546875 C 589.722656 402.210938 589.753906 402.035156 590.148438 401.15625 C 590.648438 400.027344 591.464844 399.144531 592.5 398.605469 C 593.136719 398.277344 593.40625 398.222656 594.472656 398.222656 L 595.707031 398.222656 L 617.980469 406.246094 C 630.230469 410.660156 640.578125 414.402344 640.972656 414.566406 C 641.957031 414.972656 643.011719 416.066406 643.519531 417.203125 C 644.574219 419.574219 643.878906 422.507812 641.910156 424.003906 C 641.082031 424.632812 640.167969 424.917969 639.035156 424.90625 C 638.1875 424.894531 636.382812 424.269531 615.417969 416.726562 Z M 619.570312 357.953125 C 618.183594 357.539062 616.832031 356.203125 616.3125 354.726562 C 615.910156 353.589844 615.910156 351.917969 616.3125 350.777344 C 616.84375 349.269531 618.195312 347.953125 619.65625 347.519531 C 620.320312 347.320312 646.554688 345.730469 647.59375 345.828125 C 649.230469 345.976562 650.96875 347.4375 651.597656 349.195312 C 652.046875 350.445312 652.019531 352.171875 651.539062 353.332031 C 650.917969 354.8125 649.664062 355.988281 648.253906 356.40625 C 647.804688 356.542969 621.902344 358.167969 620.632812 358.140625 C 620.375 358.136719 619.898438 358.050781 619.570312 357.953125 Z M 247.054688 356.566406 C 246.359375 356.410156 245.320312 355.824219 244.75 355.269531 C 243.800781 354.351562 243.105469 352.640625 243.105469 351.234375 C 243.105469 349.6875 243.960938 347.824219 245.074219 346.933594 C 246.363281 345.898438 245.78125 345.96875 260.082031 345.109375 C 267.238281 344.675781 273.648438 344.347656 274.328125 344.375 C 275.917969 344.441406 276.734375 344.84375 277.753906 346.066406 C 278.695312 347.1875 279.050781 348.1875 279.066406 349.742188 C 279.074219 350.800781 279.035156 350.992188 278.585938 351.996094 C 277.824219 353.699219 276.648438 354.691406 275.023438 354.996094 C 274.605469 355.074219 268.730469 355.460938 261.96875 355.851562 C 255.207031 356.242188 249.207031 356.589844 248.636719 356.625 C 248.0625 356.660156 247.351562 356.636719 247.054688 356.566406 Z M 299.761719 303.238281 C 298.449219 302.855469 254.113281 286.828125 253.648438 286.570312 C 253.3125 286.378906 252.738281 285.863281 252.371094 285.421875 C 251.492188 284.355469 251.136719 283.328125 251.128906 281.8125 C 251.121094 280.816406 251.175781 280.53125 251.515625 279.71875 C 251.734375 279.203125 252.101562 278.546875 252.328125 278.261719 C 253.28125 277.0625 254.90625 276.324219 256.300781 276.464844 C 256.851562 276.519531 263.945312 279.007812 279.714844 284.679688 C 292.15625 289.15625 302.585938 292.953125 302.894531 293.121094 C 303.695312 293.546875 304.8125 294.941406 305.171875 295.949219 C 305.386719 296.566406 305.464844 297.082031 305.464844 297.957031 C 305.46875 299.023438 305.425781 299.230469 304.988281 300.207031 C 304.425781 301.46875 303.765625 302.179688 302.617188 302.777344 C 301.808594 303.195312 300.394531 303.421875 299.761719 303.238281 Z M 593.300781 303.132812 C 591.863281 302.667969 590.722656 301.625 590.09375 300.195312 C 589.765625 299.460938 589.726562 299.214844 589.726562 297.933594 C 589.722656 296.671875 589.769531 296.390625 590.070312 295.675781 C 590.503906 294.65625 591.285156 293.707031 592.09375 293.222656 C 592.4375 293.015625 602.929688 289.167969 615.417969 284.675781 C 637.773438 276.625 638.132812 276.503906 639.15625 276.503906 C 641.097656 276.511719 642.679688 277.609375 643.542969 279.558594 C 643.929688 280.425781 643.972656 280.636719 643.972656 281.8125 C 643.972656 282.925781 643.921875 283.230469 643.613281 283.953125 C 643.136719 285.078125 642.601562 285.796875 641.832031 286.34375 C 641.355469 286.683594 635.421875 288.871094 618.386719 294.996094 C 594.140625 303.714844 594.621094 303.558594 593.300781 303.132812 Z M 587.167969 244.929688 C 586.199219 244.574219 585.648438 244.1875 584.980469 243.386719 C 583.457031 241.558594 583.265625 238.875 584.511719 236.777344 C 584.847656 236.207031 587.175781 234.046875 595.589844 226.488281 C 601.449219 221.226562 606.503906 216.78125 606.828125 216.613281 C 609.300781 215.300781 612.183594 216.472656 613.375 219.265625 C 613.738281 220.117188 613.789062 220.378906 613.785156 221.453125 C 613.785156 222.480469 613.726562 222.8125 613.433594 223.511719 C 613.242188 223.972656 612.960938 224.539062 612.808594 224.773438 C 612.535156 225.203125 592.339844 243.421875 591.179688 244.289062 C 590.035156 245.144531 588.449219 245.398438 587.167969 244.929688 Z M 307.074219 242.601562 C 306.804688 242.527344 306.335938 242.328125 306.035156 242.160156 C 305.566406 241.898438 290.113281 230.886719 284.523438 226.832031 C 282.460938 225.335938 281.882812 224.644531 281.46875 223.160156 C 280.441406 219.515625 283.007812 215.894531 286.429688 216.164062 C 286.960938 216.207031 287.566406 216.371094 288 216.589844 C 289.046875 217.121094 310.855469 232.757812 311.511719 233.453125 C 313.207031 235.234375 313.464844 238.390625 312.082031 240.425781 C 311.433594 241.375 310.765625 241.953125 309.871094 242.320312 C 309.023438 242.671875 307.773438 242.796875 307.074219 242.601562 Z M 355.597656 217.710938 C 354.773438 217.480469 353.90625 216.90625 353.277344 216.179688 C 352.359375 215.113281 325.085938 173.484375 324.707031 172.570312 C 323.550781 169.777344 324.90625 166.371094 327.59375 165.328125 C 329 164.78125 330.816406 165.097656 332.058594 166.105469 C 332.570312 166.519531 334.582031 169.496094 342.308594 181.261719 C 347.597656 189.3125 353.929688 198.945312 356.382812 202.667969 C 358.832031 206.394531 360.996094 209.796875 361.195312 210.230469 C 361.507812 210.925781 361.550781 211.1875 361.550781 212.390625 C 361.550781 213.585938 361.503906 213.867188 361.183594 214.636719 C 360.722656 215.742188 359.710938 216.859375 358.722656 217.359375 C 357.882812 217.78125 356.433594 217.945312 355.597656 217.710938 Z M 536.953125 217.589844 C 535.960938 217.226562 535.40625 216.828125 534.710938 215.972656 C 533.425781 214.390625 533.132812 211.96875 533.992188 210.070312 C 534.363281 209.257812 561.90625 167.363281 562.570312 166.605469 C 562.902344 166.226562 563.5 165.757812 563.953125 165.527344 C 564.648438 165.171875 564.902344 165.121094 565.984375 165.121094 C 567.046875 165.121094 567.320312 165.175781 567.949219 165.5 C 570.285156 166.710938 571.414062 169.683594 570.535156 172.292969 C 570.328125 172.902344 566.640625 178.617188 556.203125 194.515625 C 548.472656 206.285156 541.996094 216.097656 541.804688 216.320312 C 541.617188 216.542969 541.039062 216.957031 540.519531 217.242188 C 539.332031 217.890625 538.105469 218.011719 536.953125 217.589844 Z M 446.238281 184.992188 C 444.839844 184.5 443.699219 183.40625 443.089844 181.957031 L 442.726562 181.09375 L 442.726562 126.554688 L 443.152344 125.597656 C 443.683594 124.402344 444.710938 123.328125 445.75 122.871094 C 446.320312 122.621094 446.765625 122.542969 447.605469 122.539062 C 448.570312 122.535156 448.816406 122.589844 449.554688 122.976562 C 450.589844 123.515625 451.5 124.492188 451.984375 125.589844 L 452.351562 126.414062 L 452.386719 153.53125 C 452.421875 183.488281 452.480469 181.410156 451.59375 182.839844 C 450.449219 184.683594 448.078125 185.636719 446.238281 184.992188 Z M 501.574219 174.691406 C 500.109375 174.410156 498.746094 173.269531 498.042969 171.742188 C 497.722656 171.050781 497.632812 170.648438 497.585938 169.726562 C 497.53125 168.59375 497.582031 168.363281 500.996094 154.1875 C 502.902344 146.273438 504.558594 139.503906 504.679688 139.148438 C 504.816406 138.734375 505.203125 138.160156 505.746094 137.554688 C 506.820312 136.359375 507.691406 135.945312 509.136719 135.945312 C 511.078125 135.945312 512.597656 136.984375 513.492188 138.917969 C 514.414062 140.921875 514.550781 140.105469 510.515625 156.777344 C 507.785156 168.054688 506.941406 171.351562 506.609375 172.027344 C 505.675781 173.933594 503.523438 175.070312 501.574219 174.691406 Z M 394.105469 173.671875 C 393.035156 173.390625 391.726562 172.351562 391.148438 171.316406 C 391.007812 171.0625 388.683594 164.546875 385.988281 156.835938 L 381.085938 142.820312 L 381.074219 141.378906 C 381.066406 140.109375 381.105469 139.84375 381.410156 139.125 C 381.871094 138.03125 382.644531 137.136719 383.632812 136.542969 C 384.410156 136.078125 384.507812 136.054688 385.8125 136.054688 C 387.019531 136.054688 387.261719 136.101562 387.917969 136.441406 C 388.886719 136.941406 389.773438 137.9375 390.238281 139.046875 C 390.441406 139.539062 392.734375 146.027344 395.328125 153.464844 C 400.007812 166.890625 400.042969 167 400.09375 168.214844 C 400.132812 169.210938 400.089844 169.59375 399.863281 170.265625 C 398.992188 172.835938 396.515625 174.300781 394.101562 173.671875 Z M 449.367188 89.289062 C 450.808594 88.882812 452.003906 88.121094 453.066406 86.929688 C 454.007812 85.878906 454.320312 85.308594 461.523438 71.519531 C 466.476562 62.039062 469.105469 56.867188 469.304688 56.210938 C 470.6875 51.675781 468.34375 46.601562 464.125 45.003906 L 463.28125 44.683594 L 447.089844 44.644531 C 429.074219 44.601562 429.691406 44.570312 427.886719 45.558594 C 424.164062 47.59375 422.4375 52.730469 424.0625 56.925781 C 424.203125 57.289062 428.128906 64.054688 432.78125 71.957031 C 440.054688 84.300781 441.363281 86.445312 442.078125 87.183594 C 442.96875 88.109375 444.324219 88.933594 445.523438 89.28125 C 446.472656 89.554688 448.398438 89.5625 449.367188 89.289062 Z M 445.371094 80.109375 C 444.261719 79.589844 443.679688 79 442.761719 77.453125 C 437.632812 68.835938 433.308594 61.359375 433.058594 60.671875 C 432.1875 58.289062 433.335938 55.292969 435.558594 54.15625 L 436.351562 53.75 L 456.773438 53.75 L 457.585938 54.164062 C 458.542969 54.652344 459.585938 55.800781 459.992188 56.808594 C 460.367188 57.742188 460.457031 59.472656 460.175781 60.421875 C 459.851562 61.511719 451.066406 78.246094 450.445312 78.949219 C 449.59375 79.917969 448.664062 80.34375 447.277344 80.402344 C 446.273438 80.445312 446.003906 80.402344 445.371094 80.109375 Z M 445.371094 80.109375 "/>
</g>
</svg>
