<?xml version="1.0" standalone="no"?>
<!DOCTYPE svg PUBLIC "-//W3C//DTD SVG 20010904//EN"
 "http://www.w3.org/TR/2001/REC-SVG-20010904/DTD/svg10.dtd">
<svg version="1.0" xmlns="http://www.w3.org/2000/svg"
 width="716.000000pt" height="716.000000pt" viewBox="0 0 716.000000 716.000000"
 preserveAspectRatio="xMidYMid meet">
<metadata>
Created by potrace 1.11, written by Peter Selinger 2001-2013
</metadata>
<g transform="translate(0.000000,716.000000) scale(0.100000,-0.100000)"
fill="#000000" stroke="none">
<path d="M3472 6769 c-13 -5 -38 -12 -55 -15 -17 -3 -37 -9 -43 -15 -7 -5 -21
-12 -32 -14 -12 -2 -34 -12 -49 -23 -15 -10 -47 -32 -71 -47 -38 -25 -169
-149 -197 -187 -55 -72 -65 -88 -65 -94 0 -4 -6 -15 -14 -23 -8 -9 -38 -56
-67 -106 -75 -129 -157 -273 -186 -325 -14 -25 -29 -49 -33 -55 -5 -5 -23 -37
-40 -70 -18 -33 -39 -67 -46 -75 -7 -8 -17 -26 -23 -40 -6 -14 -22 -43 -35
-65 -14 -22 -37 -62 -51 -90 -15 -27 -33 -57 -41 -66 -8 -8 -14 -18 -14 -21 0
-3 -48 -88 -106 -189 -59 -101 -120 -209 -137 -239 -16 -30 -35 -62 -42 -70
-7 -8 -19 -28 -27 -45 -17 -36 -41 -78 -48 -85 -3 -3 -13 -21 -24 -40 -10 -19
-26 -48 -36 -65 -9 -16 -61 -106 -115 -200 -54 -93 -120 -207 -146 -253 -27
-45 -49 -87 -49 -92 0 -6 -3 -10 -8 -10 -4 0 -18 -21 -32 -47 -13 -27 -42 -77
-63 -112 -21 -35 -57 -98 -79 -140 -23 -42 -44 -78 -47 -81 -3 -3 -17 -25 -30
-50 -14 -25 -42 -74 -63 -109 -21 -34 -38 -67 -38 -72 0 -5 -4 -9 -10 -9 -5 0
-9 -3 -8 -7 1 -5 -5 -19 -14 -33 -29 -46 -68 -115 -80 -143 -7 -15 -16 -27
-20 -27 -4 0 -8 -4 -8 -10 0 -5 -32 -64 -71 -132 -40 -67 -80 -137 -90 -155
-11 -18 -28 -49 -39 -68 -22 -39 -51 -89 -72 -126 -7 -13 -15 -26 -18 -29 -3
-3 -11 -16 -18 -30 -7 -14 -26 -47 -42 -75 -17 -27 -35 -61 -41 -75 -5 -13
-13 -27 -17 -30 -6 -4 -211 -357 -281 -483 -9 -16 -20 -36 -26 -45 -5 -9 -34
-60 -64 -112 -30 -52 -57 -97 -60 -100 -3 -3 -15 -23 -26 -45 -11 -22 -22 -42
-25 -45 -3 -3 -16 -25 -29 -50 -13 -25 -29 -52 -35 -60 -7 -8 -18 -28 -26 -45
-8 -16 -29 -56 -47 -87 -18 -32 -30 -58 -27 -58 2 0 -2 -13 -10 -28 -64 -124
-100 -363 -72 -487 43 -199 167 -352 351 -434 28 -12 57 -26 65 -30 15 -8 77
-24 82 -21 2 1 16 -4 33 -10 16 -6 50 -13 75 -16 25 -2 54 -7 65 -11 32 -11
2256 -10 2262 1 3 5 6 458 6 1008 0 549 3 998 6 999 3 1 275 2 604 3 l597 1 1
-55 c0 -30 1 -483 1 -1007 0 -704 3 -953 12 -956 17 -6 2238 0 2266 6 14 3 43
8 65 12 22 3 58 11 80 16 22 6 45 12 50 14 41 9 170 71 218 103 38 27 109 94
144 135 6 8 24 39 40 68 15 30 32 57 36 60 5 3 8 10 7 15 0 5 4 29 10 54 19
79 20 94 21 170 1 142 -44 300 -135 472 -28 54 -57 111 -65 126 -8 15 -17 29
-20 32 -3 3 -12 16 -19 29 -8 13 -23 40 -34 60 -28 49 -116 202 -128 221 -5 8
-30 51 -54 95 -25 44 -53 91 -61 105 -31 52 -212 366 -219 380 -4 8 -18 33
-32 55 -13 22 -30 52 -36 68 -7 15 -16 27 -20 27 -4 0 -8 4 -8 9 0 8 -65 125
-100 181 -5 8 -39 67 -75 130 -36 63 -70 122 -75 130 -45 72 -170 294 -170
301 0 5 -4 9 -10 9 -5 0 -10 4 -10 9 0 6 -31 64 -70 130 -38 66 -70 124 -70
130 0 6 -3 11 -7 11 -5 0 -13 10 -19 23 -11 22 -190 333 -225 391 -10 17 -23
40 -28 51 -5 11 -20 36 -33 55 -13 19 -30 50 -37 68 -7 17 -17 32 -22 32 -5 0
-9 5 -9 11 0 6 -31 64 -70 129 -38 65 -70 123 -70 129 0 6 -4 11 -9 11 -5 0
-11 8 -14 18 -4 9 -20 40 -37 67 -17 28 -33 57 -37 65 -3 8 -13 23 -21 33 -8
9 -11 17 -6 17 5 0 4 4 -2 8 -12 8 -94 150 -94 163 0 5 -4 9 -10 9 -5 0 -10 4
-10 9 0 5 -27 55 -60 111 -33 56 -60 104 -60 106 0 4 -50 89 -88 149 -7 11
-19 34 -28 50 -8 17 -23 44 -34 60 -10 17 -25 41 -33 55 -51 93 -403 700 -418
722 -11 14 -19 31 -19 37 0 6 -4 11 -8 11 -5 0 -15 12 -23 27 -21 41 -53 78
-152 176 -48 48 -94 87 -102 87 -7 0 -15 4 -17 8 -6 15 -75 52 -144 78 -56 21
-91 27 -179 29 -60 2 -121 0 -133 -6z m188 -2483 c150 -15 276 -75 386 -183
46 -45 94 -107 94 -122 0 -6 4 -11 8 -11 19 0 73 -148 87 -237 9 -57 7 -198
-4 -230 -1 -2 -1 -4 0 -5 3 -12 -59 -160 -87 -206 -35 -59 -146 -173 -199
-205 -123 -75 -236 -105 -375 -102 -114 3 -226 33 -302 81 -21 13 -40 24 -43
24 -15 0 -141 121 -170 164 -43 63 -84 152 -101 216 -18 70 -27 257 -12 266 4
3 6 9 3 13 -8 14 24 112 63 191 27 55 58 96 117 155 114 115 240 176 389 191
34 3 62 7 64 9 2 2 11 1 20 -1 9 -2 37 -5 62 -8z"/>
</g>
</svg>
