<?xml version="1.0" encoding="UTF-8" standalone="no"?>
<!-- Created with Inkscape (http://www.inkscape.org/) -->

<svg
   width="582.55859mm"
   height="526.51044mm"
   viewBox="0 0 582.55859 526.51044"
   version="1.1"
   id="svg324"
   xmlns="http://www.w3.org/2000/svg"
   xmlns:svg="http://www.w3.org/2000/svg">
  <defs
     id="defs321" />
  <g
     id="layer1"
     transform="translate(193.5748,106.79576)">
    <path
       style="fill:#000000;stroke-width:0.0846667"
       d="m 93.512969,419.65989 c -18.59297,-1.33062 -34.988691,-10.14819 -45.961571,-24.71803 -1.99126,-2.64399 -3.19871,-4.54181 -5.87088,-9.22751 -1.04897,-1.83939 -23.80628,-41.78723 -50.5718173,-88.773 -26.7655437,-46.98576 -49.5873407,-87.0479 -50.7151177,-89.02699 -1.127777,-1.97908 -8.051384,-14.13298 -15.385786,-27.00866 -7.33441,-12.87568 -14.268688,-25.04863 -15.409508,-27.051 C -164.14434,24.421721 -185.847,-13.718949 -186.6588,-15.309279 c -7.37693,-14.45173 -8.89685,-30.56384 -4.34611,-46.07186 3.00515,-10.24096 8.52792,-19.53347 16.1213,-27.12539 4.89365,-4.8927 9.89442,-8.525557 15.96293,-11.596361 7.71715,-3.90508 16.00899,-6.10014 24.93433,-6.60077 2.17407,-0.12194 461.3046,-0.12332 463.43474,-0.001 14.27059,0.81686 27.14929,6.02555 37.8121,15.292811 1.43385,1.24619 4.98258,4.82118 6.20704,6.25296 7.32765,8.56839 12.16103,18.44592 14.33479,29.29466 0.74851,3.7357 1.0907,6.95846 1.16868,11.00667 0.10666,5.5372 -0.45098,10.5879 -1.75396,15.88622 -1.46116,5.94147 -3.60348,11.18201 -7.03888,17.21844 -0.94899,1.66749 -68.62052,120.462259 -73.28614,128.650989 -1.048,1.83938 -29.01361,50.93123 -62.14579,109.09299 -33.13218,58.16176 -61.0977,107.25361 -62.14558,109.09299 -1.0479,1.83938 -8.05696,14.14568 -15.5757,27.34733 -15.02433,26.38021 -14.78374,25.95924 -15.62898,27.34733 -3.7136,6.09868 -8.70501,11.80278 -14.19501,16.22181 -8.83577,7.11212 -19.47302,11.66214 -30.85071,13.19621 -3.06923,0.41382 -4.22257,0.48702 -8.095951,0.5138 -2.02565,0.014 -4.15925,-0.009 -4.74133,-0.0503 z M 105.19697,270.22766 c 13.13542,-0.57521 24.97968,-2.28674 37.29566,-5.38932 19.58822,-4.93457 38.09211,-13.10139 55.03333,-24.28932 14.9595,-9.87922 28.48004,-22.01283 40.09157,-35.97899 24.55003,-29.52843 38.94296,-65.86871 41.31273,-104.30932 0.43067,-6.986119 0.44603,-15.318049 0.0409,-22.182669 -1.24838,-21.15172 -6.01685,-41.50956 -14.2193,-60.70599 -12.40222,-29.02525 -32.68302,-54.77856 -58.25122,-73.96959 -22.79308,-17.10807 -48.81511,-28.40647 -76.87732,-33.37905 -7.56801,-1.34105 -14.74786,-2.13092 -23.70667,-2.60804 -2.71601,-0.14464 -13.682101,-0.14451 -16.425331,0 -13.06759,0.68936 -23.95893,2.25956 -35.644661,5.13887 -25.25334,6.22231 -48.7923823,17.86009 -69.328627,34.27631 -5.560559,4.44499 -9.615076,8.08616 -15.048838,13.51466 -4.833561,4.82887 -7.77737,8.0394 -11.648279,12.70364 -21.268129,25.62695 -34.937807,56.27229 -39.730312,89.06932 -1.329343,9.09727 -1.904221,17.18763 -1.901105,26.75467 0.002,6.33733 0.167944,10.30377 0.672778,16.086659 3.296208,37.75826 18.189328,73.1336 42.914261,101.93343 5.571151,6.48932 12.016875,12.999 18.462793,18.64598 18.8245737,16.49137 40.683189,28.85331 64.219659,36.31885 16.21049,5.14181 32.845771,7.94457 50.198011,8.45749 2.79511,0.0826 9.762231,0.0338 12.539991,-0.0878 z M 92.163079,264.63512 C 62.056428,263.66971 33.092188,255.13988 7.2865007,239.63934 -10.578113,228.90872 -26.62126,214.85346 -39.741544,198.43848 -62.360886,170.13906 -75.627889,135.78233 -77.849466,99.752711 c -0.501683,-8.13625 -0.427998,-16.80478 0.211574,-24.892 2.819349,-35.64975 16.445144,-69.4746 39.188488,-97.28199 3.913539,-4.78493 7.205616,-8.40103 12.06593,-13.25351 3.30465,-3.29932 5.217634,-5.09966 8.221116,-7.737 16.0921597,-14.13046 34.511686,-25.15008 54.575226,-32.65007 15.51211,-5.7986 32.077361,-9.40012 48.633431,-10.57359 4.89395,-0.34687 6.19151,-0.38649 12.65767,-0.38649 6.259651,0 7.692081,0.0405 12.065001,0.34139 28.77229,1.97956 56.21508,10.85309 80.72554,26.10232 24.66481,15.34525 45.42269,36.86881 59.90784,62.11761 3.24267,5.65224 6.53431,12.2505 9.10213,18.24567 7.73799,18.06606 12.42712,37.56876 13.71035,57.02299 0.26886,4.076 0.31195,5.30814 0.35832,10.24467 0.059,6.28366 -0.053,9.83854 -0.488,15.493999 -2.18708,28.43164 -11.36438,56.0021 -26.68906,80.17932 -12.45051,19.64274 -28.87326,36.84421 -47.9388,50.21195 -14.84384,10.40772 -31.49713,18.58731 -48.68333,23.91179 -18.56717,5.75232 -38.21404,8.40734 -57.610881,7.78535 z M 102.9533,249.39995 c 4.12996,-0.15282 8.18689,-0.45496 11.98033,-0.89223 30.03528,-3.46221 58.05365,-15.84331 81.07497,-35.8264 3.35263,-2.91017 8.10732,-7.49922 11.16733,-10.77829 15.0231,-16.09856 26.29383,-35.13147 33.05457,-55.81935 9.94617,-30.43531 9.82464,-63.674979 -0.34367,-93.998299 -9.67477,-28.85152 -28.07178,-54.25324 -52.52087,-72.51833 -7.50109,-5.60382 -14.56212,-9.95868 -22.90233,-14.12493 -18.99402,-9.48823 -38.81665,-14.59857 -60.49433,-15.59564 -4.372061,-0.20109 -11.659211,-0.10411 -16.425331,0.21859 -36.151031,2.44766 -70.028621,17.87335 -95.7567843,43.60152 -32.0019987,32.002 -47.7347997,76.18381 -43.1731627,121.241449 2.889622,28.5422 13.996271,55.6557 32.02927,78.18966 3.705546,4.63044 6.835419,8.11387 11.2621217,12.53433 7.33823701,7.32788 14.665036,13.31714 23.2485543,19.00441 23.28783,15.43006 49.976131,23.91068 78.020331,24.79216 1.99883,0.0628 7.763101,0.0459 9.779001,-0.0286 z m -10.075331,-5.63803 c -0.32597,-0.0157 -1.44992,-0.0697 -2.49767,-0.11999 -14.5188,-0.69713 -29.399391,-3.77612 -43.107891,-8.91962 -8.68501,-3.25865 -17.48903,-7.58717 -25.38744,-12.48179 -7.34714,-4.553 -14.4003553,-9.87847 -21.08199429,-15.91777 -1.82685301,-1.65123 -7.42024501,-7.1992 -9.07688401,-9.00316 C -24.740348,179.38873 -36.32129,158.01918 -42.15302,134.8047 c -4.600625,-18.31376 -5.564047,-37.256589 -2.848872,-56.014319 1.793646,-12.39132 5.279093,-24.70332 10.241863,-36.17833 2.843911,-6.57574 6.473664,-13.4741 10.270075,-19.51834 7.419466,-11.81246 16.8038927,-22.80969998 27.2825937,-31.97136 11.4881583,-10.04424 24.2788183,-18.12058 38.1423283,-24.08399 23.538071,-10.12493 49.418371,-13.74449 75.071162,-10.49928 26.07666,3.29883 50.939,13.83859 71.5715,30.34091 4.47302,3.57762 7.81205,6.5799 12.1524,10.92683 2.90783,2.91223002 4.35168,4.44861 6.65071,7.0769 10.727,12.26326 19.36299,26.39374 25.40675,41.57133 7.79526,19.57608 11.17573,40.76154 9.88923,61.975989 -1.67101,27.55506 -11.23183,53.97138 -27.62494,76.32699 -10.08005,13.74638 -22.79286,25.85615 -36.97282,35.21901 -19.62002,12.95486 -41.83115,20.85341 -65.10866,23.15345 -1.8308,0.1809 -4.22532,0.36641 -6.68867,0.51819 -1.39669,0.0861 -11.123421,0.17485 -12.403661,0.11324 z m 11.260661,-7.1477 c 22.26308,-1.09089 43.24479,-7.24577 62.2701,-18.26661 14.66039,-8.49235 27.78009,-19.78055 38.39987,-33.03925 22.9862,-28.69806 33.40568,-65.14423 29.11874,-101.853979 -3.06482,-26.24444 -13.71202,-51.0488 -30.66957,-71.44962 -5.796,-6.97289 -12.58278,-13.65186 -19.61714,-19.3055 -8.74092,-7.02522 -18.35197,-12.99256 -28.448,-17.66288 -14.71988,-6.80926 -30.6242,-10.93666 -46.94766,-12.1836 -3.80806,-0.2909 -5.39324,-0.34271 -10.498671,-0.34318 -5.09673,-8.4e-4 -6.64897,0.0498 -10.49867,0.33995 -32.319581,2.43589 -62.555491,16.19675 -85.7544443,39.02823 -20.6307417,20.30395 -34.3169547,46.57489 -39.0395337,74.9371 -1.388754,8.34036 -1.941644,15.68777 -1.840747,24.461829 0.04852,4.22024 0.09563,5.39125 0.359283,8.93233 2.680657,36.0026 19.827908,69.80875 47.4084527,93.46671 14.4792383,12.41995 31.1717783,21.61407 49.2759983,27.1408 11.478331,3.50403 23.425351,5.47093 35.729331,5.88232 2.50626,0.0838 8.235451,0.0387 10.752661,-0.0846 z m -7.386861,-2.91153 c -0.86582,-0.28003 -1.52036,-0.88427 -1.94899,-1.79922 l -0.23148,-0.49411 v -16.002 -16.002 l 0.18888,-0.46566 c 0.28825,-0.71063 0.84859,-1.29326 1.60177,-1.66551 0.5841,-0.28868 0.69785,-0.31529 1.32906,-0.31093 0.92188,0.006 1.51023,0.23438 2.1621,0.83791 0.336521,0.31154 0.570021,0.62407 0.737911,0.98765 l 0.24561,0.53188 v 16.08845 16.08845 l -0.27515,0.55893 c -0.32664,0.66347 -0.858711,1.18392 -1.530351,1.49692 -0.57628,0.26856 -1.68583,0.34121 -2.27936,0.14924 z m -40.073431,-7.27954 c -1.34297,-0.51674 -2.15091,-1.52958 -2.25018,-2.82087 -0.0422,-0.54844 0.0615,-0.97083 2.24993,-9.16858 1.26177,-4.72652 2.39033,-8.79141 2.50791,-9.0331 0.2784,-0.57221 1.00223,-1.23035 1.62475,-1.47728 0.36979,-0.14668 0.65926,-0.19346 1.20622,-0.19494 0.63408,-0.002 0.78738,0.03 1.289031,0.26625 1.11486,0.52511 1.76152,1.48063 1.82188,2.69207 0.0331,0.66403 -0.0112,0.8458 -2.257481,9.25812 -1.55809,5.83517 -2.36407,8.71463 -2.51888,8.99908 -0.29507,0.54213 -0.84978,1.04821 -1.45239,1.32503 -0.57941,0.26616 -1.72337,0.3456 -2.22079,0.15422 z m 80.310962,-8.5e-4 c -0.79877,-0.25328 -1.61389,-0.90329 -1.93502,-1.54304 -0.38918,-0.77534 -6.43028,-16.64387 -6.48441,-17.03305 -0.18264,-1.31282 0.51003,-2.61841 1.73076,-3.26226 0.47691,-0.25154 0.56241,-0.26794 1.397,-0.26794 0.79771,0 0.93746,0.0238 1.36101,0.23197 0.60387,0.29678 1.23785,0.92081 1.48464,1.46137 0.1063,0.23283 1.59017,4.04283 3.29751,8.46666 2.78623,7.21932 3.1087,8.10531 3.14778,8.64832 0.025,0.34704 -8.5e-4,0.78922 -0.0601,1.03707 -0.14051,0.58569 -0.66807,1.37586 -1.16183,1.74015 -0.75668,0.55826 -1.95212,0.7824 -2.77731,0.52075 z M 20.049138,208.75713 c -0.95243,-0.18826 -1.86639,-0.92033 -2.29758,-1.8403 -0.19641,-0.41903 -0.22692,-0.59271 -0.22692,-1.29159 0,-0.72874 0.0248,-0.85668 0.25418,-1.31233 0.24887,-0.49434 18.01015,-25.00527 18.57138,-25.62889 0.3516,-0.39069 1.17444,-0.80582 1.79243,-0.9043 1.35952,-0.21664 2.76712,0.55205 3.37143,1.84115 0.19455,0.41501 0.22525,0.59054 0.22525,1.28795 0,0.72805 -0.025,0.85733 -0.254,1.31454 -0.27011,0.53924 -18.0609,25.09306 -18.56476,25.622 -0.39315,0.41273 -1.12864,0.79455 -1.74963,0.9083 -0.56019,0.10263 -0.61926,0.10281 -1.12178,0.003 z m 154.166082,0.001 c -0.59747,-0.1233 -1.2515,-0.46727 -1.64023,-0.86265 -0.29064,-0.29561 -17.33814,-23.67186 -18.32114,-25.12272 -0.42705,-0.63031 -0.58548,-1.14916 -0.58316,-1.90987 0.002,-0.58072 0.0401,-0.75826 0.26877,-1.24466 0.95568,-2.03294 3.59543,-2.51759 5.11521,-0.93913 0.49095,0.5099 18.33753,25.07594 18.59346,25.59412 0.39863,0.80711 0.38876,1.91272 -0.0247,2.76671 -0.28016,0.57861 -1.08071,1.31701 -1.66485,1.53556 -0.55648,0.2082 -1.26155,0.28208 -1.74335,0.18264 z M -8.2140253,179.26792 c -0.925314,-0.3069 -1.656622,-0.95231 -2.0566377,-1.81509 -0.187698,-0.40482 -0.224299,-0.60203 -0.223435,-1.2038 0.0014,-0.93986 0.227245,-1.53015 0.8272767,-2.1618 0.71264,-0.75019 13.750154,-11.28861 14.279795,-11.54257 0.407399,-0.19535 0.57161,-0.22329 1.312333,-0.22328 0.757055,2e-5 0.898084,0.0253 1.332484,0.2385 0.64505,0.31665 1.21953,0.90692 1.539256,1.58157 0.232419,0.49044 0.26063,0.63383 0.2582,1.31258 -0.0035,0.96448 -0.258741,1.58545 -0.913477,2.22199 -0.241156,0.23445 -3.429313,2.85438 -7.084796,5.82207 -4.382787,3.55815 -6.804922,5.46994 -7.112,5.61348 -0.557597,0.26065 -1.613873,0.33715 -2.158999,0.15635 z m 210.2016953,-0.0129 c -0.24692,-0.0693 -0.53267,-0.1707 -0.635,-0.22523 -0.66086,-0.35221 -14.89575,-9.63329 -15.1556,-9.88139 -0.40885,-0.39035 -0.81464,-1.20853 -0.89194,-1.79837 -0.18292,-1.39579 0.51118,-2.70674 1.75546,-3.31558 0.51104,-0.25005 0.62886,-0.27369 1.3637,-0.27364 0.647,6e-5 0.88227,0.0361 1.20278,0.18409 0.21914,0.10122 3.70529,2.32232 7.747,4.93578 5.17051,3.34337 7.4591,4.86976 7.7215,5.14991 0.59869,0.63914 0.80141,1.17528 0.80738,2.13532 0.005,0.74438 -0.0161,0.84876 -0.2722,1.3692 -0.67357,1.36891 -2.24732,2.11189 -3.64308,1.71991 z M 94.159589,162.61595 c -12.58687,-0.78209 -24.23563,-5.02819 -34.132291,-12.44159 -18.62593,-13.95232 -28.04154,-36.6048 -24.75853,-59.565139 2.36539,-16.54282 11.2078,-31.39373 24.74871,-41.56572 5.435931,-4.08349 11.507231,-7.23887 18.089951,-9.40173 5.02071,-1.64965 10.24157,-2.6563 15.60313,-3.00849 3.01197,-0.19786 7.467091,-0.1057 10.597411,0.2192 9.09324,0.94378 17.91367,3.89585 25.86566,8.65683 14.19927,8.50133 24.60005,22.48073 28.70387,38.58007 4.44523,17.438739 1.17454,36.038789 -8.95452,50.923309 -2.39538,3.51999 -4.7774,6.36098 -7.99411,9.53442 -3.77024,3.71953 -7.36808,6.51443 -11.85236,9.20724 -8.37811,5.03107 -17.45465,7.92076 -27.58888,8.78344 -1.40028,0.1192 -6.845101,0.1703 -8.328041,0.0782 z m 6.169041,-5.58807 c 10.58255,-0.52583 20.2148,-3.66122 28.9996,-9.43961 8.58863,-5.64937 15.61886,-13.67352 20.13871,-22.9859 6.14941,-12.6698 7.40515,-27.233959 3.51983,-40.823129 -4.18307,-14.63056 -14.22544,-27.17933 -27.68147,-34.59029 -6.87396,-3.78586 -14.40247,-6.0821 -22.43667,-6.84331 -1.94758,-0.18452 -6.363661,-0.25453 -8.382001,-0.13287 -6.29895,0.37969 -12.22229,1.68444 -17.91068,3.94521 -14.965941,5.94803 -26.864551,18.00788 -32.599861,33.04163 -1.82586,4.78607 -2.96376,9.70311 -3.51218,15.17677 -0.18174,1.81395 -0.25457,6.670079 -0.1295,8.635989 0.62512,9.82608 3.51763,18.83934 8.70832,27.13567 4.62424,7.39098 11.21399,13.90054 18.731571,18.50363 9.78544,5.99173 21.23817,8.93851 32.554331,8.37621 z M -27.976993,143.08992 c -1.479152,-0.5178 -2.421297,-2.1039 -2.118995,-3.56733 0.189823,-0.91892 0.681321,-1.65475 1.416135,-2.12012 0.282583,-0.17897 4.76945,-1.67302 15.301161,-5.09505 l 14.9013317,-4.84181 0.719667,0.0347 c 0.929073,0.0448 1.520512,0.32175 2.158407,1.01076 0.602878,0.65117 0.833823,1.24467 0.835965,2.14829 0.0013,0.58349 -0.0352,0.75933 -0.256235,1.23168 -0.31038,0.66327 -0.659672,1.07727 -1.195307,1.41676 -0.2831,0.17941 -4.74514299,1.66469 -15.2832547,5.08732 -14.175256,4.60391 -14.912474,4.83372 -15.493999,4.82988 -0.335813,-0.002 -0.779009,-0.063 -0.984876,-0.13508 z m 234.943283,-4.68065 c -8.12588,-2.64378 -14.94057,-4.89175 -15.14375,-4.99549 -0.50244,-0.25656 -1.05364,-0.84345 -1.3402,-1.42699 -0.21247,-0.43266 -0.23771,-0.57416 -0.23771,-1.33206 0,-0.78548 0.0203,-0.88918 0.27515,-1.40738 0.32619,-0.66313 0.85719,-1.18316 1.53035,-1.49873 0.41461,-0.19436 0.59079,-0.22525 1.28483,-0.22525 h 0.80433 l 14.49663,4.7204 c 7.97313,2.59622 14.70718,4.79919 14.96454,4.89548 0.63966,0.23933 1.3267,0.88279 1.65534,1.55036 0.68726,1.39601 0.23579,3.12252 -1.04656,4.00224 -0.53856,0.36948 -1.13474,0.53866 -1.87015,0.53073 -0.5528,-0.006 -1.72585,-0.37324 -15.3728,-4.81331 z m 2.70335,-34.58134 c -0.90232,-0.24328 -1.78193,-1.03106 -2.12055,-1.89915 -0.26113,-0.66943 -0.26053,-1.6522 0.001,-2.323959 0.3462,-0.88779 1.22353,-1.66088 2.17584,-1.91731 0.43114,-0.11609 17.50687,-1.05108 18.18272,-0.9956 1.06499,0.0874 2.19602,0.94737 2.60626,1.98158 0.29179,0.73562 0.27529,1.752149 -0.0395,2.433879 -0.4027,0.87209 -1.21811,1.56307 -2.1363,1.81031 -0.29443,0.0793 -17.15087,1.03589 -17.97905,1.02031 -0.16712,-0.003 -0.47799,-0.0527 -0.69083,-0.11006 z m -242.449265,-0.81598 c -0.452814,-0.0934 -1.130342,-0.43807 -1.501284,-0.76376 -0.616068,-0.54092 -1.068781,-1.54688 -1.068781,-2.374929 0,-0.90848 0.55488,-2.00579 1.27983,-2.53094 0.838462,-0.60738 0.46024,-0.56582 9.769169,-1.07341 4.656667,-0.25391 8.828616,-0.44794 9.271,-0.43118 1.033661,0.0392 1.565672,0.27634 2.23039,0.99432 0.611988,0.66102 0.844161,1.24962 0.853195,2.16305 0.0062,0.62472 -0.01996,0.73576 -0.31264,1.327969 -0.494885,1.00131 -1.261644,1.585 -2.318343,1.76477 -0.27222,0.0463 -4.095385,0.27222 -8.495935,0.50202 -4.40055,0.2298 -8.305799,0.43506 -8.678333,0.45614 -0.372533,0.0211 -0.835253,0.006 -1.028268,-0.0341 z M 1.5226397,71.632131 c -0.85194099,-0.224 -29.7080397,-9.65487 -30.0105537,-9.80817 -0.220176,-0.11158 -0.594157,-0.41494 -0.831071,-0.67417 -0.573871,-0.6279 -0.804206,-1.23149 -0.810472,-2.12378 -0.0041,-0.58623 0.03067,-0.75509 0.253687,-1.23168 0.142155,-0.30376 0.379425,-0.69008 0.527279,-0.85847 0.619573,-0.70566 1.679422,-1.13893 2.586354,-1.05732 0.358386,0.0323 4.973845,1.49675 15.237552,4.83493 8.0978837,2.63377 14.8874717,4.86808 15.0879707,4.96514 0.519583,0.25153 1.248766,1.07162 1.480456,1.665 0.142181,0.36417 0.191609,0.66714 0.192752,1.18146 0.0013,0.62811 -0.02716,0.74974 -0.310608,1.32325 -0.367148,0.74288 -0.795138,1.16228 -1.543448,1.51245 -0.525695,0.246 -1.445793,0.38024 -1.859898,0.27136 z m 191.0503203,-0.0622 c -0.9362,-0.2737 -1.67824,-0.88706 -2.08898,-1.72673 -0.21191,-0.43322 -0.23774,-0.5775 -0.2385,-1.33249 -8.5e-4,-0.74091 0.0273,-0.90667 0.22439,-1.32715 0.28192,-0.60139 0.78985,-1.15879 1.31667,-1.44492 0.22298,-0.12109 7.05387,-2.3841 15.17975,-5.02888 14.55069,-4.73591 14.78459,-4.80867 15.45167,-4.80705 1.2623,0.003 2.29114,0.65042 2.85546,1.79666 0.25107,0.50997 0.2772,0.63507 0.2772,1.32687 0,0.65523 -0.0329,0.83405 -0.23148,1.25792 -0.31101,0.66387 -0.6585,1.08553 -1.15952,1.40705 -0.31136,0.19979 -4.17302,1.48844 -15.26091,5.09264 -15.78027,5.12947 -15.46616,5.03739 -16.32575,4.78608 z m -3.99319,-34.24687 c -0.63013,-0.20827 -0.98894,-0.43724 -1.42279,-0.90791 -0.99076,-1.07484 -1.11478,-2.65425 -0.3054,-3.88937 0.22004,-0.33578 1.73304,-1.606 7.21075,-6.05367 3.81275,-3.0958 7.10433,-5.71104 7.31461,-5.81165 1.60988,-0.77018 3.48443,-0.0827 4.26133,1.56293 0.23557,0.49897 0.26773,0.65404 0.26693,1.287 -8.5e-4,0.60252 -0.0381,0.7996 -0.22917,1.21075 -0.12554,0.2701 -0.30842,0.60365 -0.40638,0.74123 -0.17978,0.25246 -13.32254,10.97423 -14.07693,11.48384 -0.7454,0.50354 -1.77871,0.65257 -2.61295,0.37685 z M 6.2838277,35.954111 c -0.175353,-0.0442 -0.480153,-0.16164 -0.677334,-0.26107 -0.305985,-0.15428 -10.362597,-6.63215 -14.000334,-9.01818 -1.343584,-0.88127 -1.7177677,-1.28755 -1.9892937,-2.15997 -0.667953,-2.14615 1.0029187,-4.27669 3.2290677,-4.11741 0.347344,0.0249 0.741409,0.12133 1.023975,0.25069 0.68138,0.31195 14.873299,9.51388 15.301128,9.92113 1.1031473,1.05009 1.2707873,2.90548 0.370747,4.10331 -0.420853,0.56011 -0.856657,0.89821 -1.438258,1.11582 -0.551443,0.20631 -1.364429,0.28034 -1.819698,0.16568 z M 37.865458,21.307181 c -0.53763,-0.13582 -1.10325,-0.47305 -1.51171,-0.90132 -0.598,-0.62699 -18.34848,-25.12101 -18.59486,-25.65917 -0.75296,-1.64467 0.12962,-3.6474 1.8782,-4.26198 0.91564,-0.32182 2.09871,-0.13537 2.90728,0.45817 0.33212,0.2438 1.64206,1.9946 6.67143,8.91665002 3.442,4.73729998 7.56323,10.40605998 9.1583,12.59722998 1.59507,2.19117 3.00461,4.19351 3.13231,4.44962 0.20405,0.40923 0.23223,0.56315 0.23254,1.27 0,0.70424 -0.0294,0.86866 -0.23851,1.32119 -0.30063,0.65048 -0.95914,1.30851 -1.60348,1.6023 -0.54462,0.24833 -1.48803,0.34459 -2.0315,0.20731 z m 118.032982,-0.0708 c -0.64657,-0.21365 -1.0072,-0.44887 -1.45957,-0.95202 -0.83593,-0.92975 -1.0273,-2.3559 -0.46606,-3.47326 0.24014,-0.47809 18.16606,-25.12796 18.59767,-25.57359 0.21748,-0.22454 0.60739,-0.4994 0.9008,-0.635 0.4528,-0.20927 0.6177,-0.23909 1.32168,-0.23909 0.69213,0 0.87071,0.0311 1.28016,0.22311 1.51879,0.71214 2.2551,2.46217 1.68126,3.9959 -0.13419,0.35864 -2.53323,3.72197 -9.32673,13.07558 -5.03033,6.92601 -9.24693,12.70009 -9.37021,12.8313 -0.12328,0.13122 -0.5002,0.37505 -0.83761,0.54186 -0.77299,0.38216 -1.57208,0.4528 -2.32139,0.20521 z M 96.857299,2.055701 c -0.91104,-0.28888 -1.65151,-0.93441 -2.04897,-1.78628998 l -0.23703,-0.508 V -16.284699 -32.330809 l 0.27721,-0.56309 c 0.34532,-0.70145 1.01357,-1.33512 1.69157,-1.60406 0.36979,-0.14668 0.65926,-0.19346 1.20622,-0.19494 0.62901,-0.002 0.78903,0.0307 1.27025,0.25745 0.67378,0.31743 1.264441,0.89171 1.581591,1.53772 l 0.23849,0.48581 0.022,15.95617 c 0.0243,17.6263 0.0609,16.40430002 -0.51539,17.24428002 C 99.598119,1.874641 98.055129,2.435531 96.857259,2.055701 Z m 36.014711,-6.061 c -0.95332,-0.16698 -1.84027,-0.83667 -2.29816,-1.73524 -0.20759,-0.40736 -0.267,-0.64503 -0.29668,-1.18671 -0.0366,-0.66733 -0.004,-0.80239 2.21927,-9.144 1.24101,-4.65667 2.31956,-8.63812 2.39676,-8.84767 0.0898,-0.24367 0.34025,-0.58216 0.69491,-0.93908 0.69916,-0.70365 1.26505,-0.9465 2.20552,-0.9465 1.26412,0 2.25361,0.61061 2.83515,1.74954 0.60165,1.17831 0.6901,0.69825 -1.93619,10.50771 -1.77667,6.63598 -2.32641,8.5765 -2.54252,8.97466 -0.60789,1.11998 -2.00853,1.78965 -3.27806,1.56729 z m -69.946192,-0.60108 c -0.6959,-0.16395 -1.5461,-0.77671 -1.92234,-1.38548 -0.0924,-0.14946 -1.60414,-3.98342 -3.35948,-8.5199 l -3.19154,-8.24816 -0.007,-0.84666 c -0.006,-0.74784 0.0197,-0.90275 0.21867,-1.32716 0.30102,-0.64211 0.80373,-1.16976 1.44674,-1.51846 0.50612,-0.27446 0.56835,-0.28705 1.41835,-0.28705 0.78651,0 0.9446,0.0261 1.3713,0.22608 0.6305,0.29553 1.2069,0.88182 1.50904,1.53493 0.13359,0.28874 1.62427,4.10639 3.312631,8.48365 3.04645,7.89826 3.07,7.96413 3.10227,8.67834 0.0265,0.58541 -0.002,0.81052 -0.15018,1.20668 -0.56742,1.51256 -2.17816,2.37325 -3.748881,2.00319 z m 35.966861,-49.65081 c 0.93835,-0.23853 1.717051,-0.68708 2.409621,-1.38804 0.61152,-0.61892 0.81499,-0.95417 5.50302,-9.06702 3.22352,-5.57845 4.93462,-8.62172 5.06516,-9.00863 0.90018,-2.66805 -0.62696,-5.65458 -3.37151,-6.59344 l -0.55034,-0.18826 -10.536641,-0.0234 c -11.72646,-0.026 -11.32392,-0.0434 -12.49878,0.53717 -2.422,1.19673 -3.54731,4.21996 -2.48941,6.68796 0.0919,0.21444 2.64599,4.19457 5.6757,8.84475 4.73289,7.2643 5.58479,8.52617 6.04978,8.96114 0.58034,0.54288 1.46249,1.02779 2.24235,1.2326 0.61817,0.16235 1.87251,0.16494 2.50105,0.005 z m -2.60082,-5.40256 c -0.72115,-0.304 -1.09975,-0.65208 -1.69833,-1.56144 -3.33783,-5.07073 -6.15072,-9.46959 -6.31412,-9.87412 -0.56653,-1.40259 0.18153,-3.16668 1.62588,-3.83418 l 0.51734,-0.23909 h 6.64634 6.646331 l 0.52683,0.24335 c 0.62356,0.28803 1.30257,0.96234 1.5666,1.55575 0.24468,0.54996 0.30196,1.56913 0.11953,2.12689 -0.20968,0.64105 -5.929491,10.48687 -6.333391,10.90201 -0.55308,0.56847 -1.15811,0.8193 -2.06024,0.8541 -0.6547,0.0253 -0.8297,8.5e-4 -1.24277,-0.17327 z"
       id="path468" />
  </g>
</svg>
